<svg xmlns="http://www.w3.org/2000/svg" viewBox="0 0 220 150" role="img" aria-label="古希腊文明路线封面">
  <defs>
    <linearGradient id="sky" x1="0" x2="0" y1="0" y2="1">
      <stop stop-color="#9fc8e7"/>
      <stop offset=".58" stop-color="#d7c4a6"/>
      <stop offset="1" stop-color="#9b8063"/>
    </linearGradient>
  </defs>
  <rect width="220" height="150" fill="url(#sky)"/>
  <circle cx="178" cy="35" r="19" fill="#efc48b" opacity=".72"/>
  <path d="M0 118c42-13 75-3 118-10 39-7 73-17 102-5v47H0Z" fill="#8d765e"/>
  <path d="M38 102h138v18H38Z" fill="#d7c39a"/>
  <path d="M50 63h116v14H50Z" fill="#e9d7ac"/>
  <path d="M43 77h129v8H43Z" fill="#c5a77a"/>
  <path d="M58 84h13v39H58zM84 84h13v39H84zM110 84h13v39h-13zM136 84h13v39h-13zM162 84h13v39h-13z" fill="#b38c64"/>
  <path d="M45 63 108 32l62 31H45Z" fill="#efe2bf"/>
</svg>
