<svg xmlns="http://www.w3.org/2000/svg" viewBox="0 0 220 150" role="img" aria-label="加拿大自然探索路线封面">
  <defs>
    <linearGradient id="sky" x1="0" x2="0" y1="0" y2="1">
      <stop stop-color="#9fd0ea"/>
      <stop offset=".58" stop-color="#d8ebee"/>
      <stop offset="1" stop-color="#2f7983"/>
    </linearGradient>
    <linearGradient id="lake" x1="0" x2="1" y1="0" y2="1">
      <stop stop-color="#4bc0c0"/>
      <stop offset="1" stop-color="#1d6f8a"/>
    </linearGradient>
  </defs>
  <rect width="220" height="150" fill="url(#sky)"/>
  <path d="M0 102 47 48l40 45 36-33 64 74H0Z" fill="#456f7a"/>
  <path d="M47 48 63 74l-28-13Z" fill="#f2f5f2"/>
  <path d="M100 113 156 43l64 80v27H83Z" fill="#526f78"/>
  <path d="M156 43 179 82l-39-16Z" fill="#f4f5f1"/>
  <path d="M0 118c43-11 74-3 114-7 48-5 82-16 106-8v47H0Z" fill="url(#lake)"/>
  <path d="M0 132c47-6 92 3 137-3 34-5 60-12 83-6v27H0Z" fill="#174f68" opacity=".55"/>
</svg>
