<svg xmlns="http://www.w3.org/2000/svg" viewBox="0 0 240 160" role="img" aria-label="土耳其热气球封面">
  <defs>
    <linearGradient id="sky" x1="0" x2="0" y1="0" y2="1">
      <stop stop-color="#d8e7ef"/>
      <stop offset=".58" stop-color="#f0d5b6"/>
      <stop offset="1" stop-color="#c59b74"/>
    </linearGradient>
    <linearGradient id="rock" x1="0" x2="1" y1="0" y2="1">
      <stop stop-color="#b98255"/>
      <stop offset="1" stop-color="#6d503f"/>
    </linearGradient>
  </defs>
  <rect width="240" height="160" fill="url(#sky)"/>
  <circle cx="54" cy="34" r="13" fill="#c77846"/>
  <path d="M44 34h20M49 23c5 9 5 18 0 27M59 23c-5 9-5 18 0 27" stroke="#f5d6a9" stroke-width="2" fill="none"/>
  <path d="M54 47v10" stroke="#865338" stroke-width="2"/>
  <circle cx="176" cy="45" r="10" fill="#d7994f"/>
  <path d="M166 45h20M171 36c4 7 4 14 0 21M181 36c-4 7-4 14 0 21" stroke="#fff0cf" stroke-width="1.5" fill="none"/>
  <path d="M176 55v8" stroke="#865338" stroke-width="1.5"/>
  <path d="M0 118c22-24 44-15 68-31 34-22 62-12 88 9 29 23 54 10 84 24v40H0Z" fill="#9f7456" opacity=".55"/>
  <path d="M0 132c36-25 61-15 88-25 35-13 79-4 152 25v28H0Z" fill="url(#rock)"/>
  <path d="M30 114h18l7 46H21ZM76 105h21l9 55H65ZM134 111h20l8 49h-32ZM188 103h22l10 57h-35Z" fill="#815a45"/>
</svg>
