<svg xmlns="http://www.w3.org/2000/svg" viewBox="0 0 88 110" role="img" aria-label="路线收藏提示小宠物">
  <defs>
    <filter id="shadow" x="-20%" y="-20%" width="140%" height="150%">
      <feDropShadow dx="0" dy="4" stdDeviation="3" flood-color="#2c392b" flood-opacity=".18"/>
    </filter>
  </defs>
  <g filter="url(#shadow)">
    <path d="M42 16c-2-8-8-13-17-13 0 10 6 16 16 17Z" fill="#8fc764"/>
    <path d="M47 17c2-9 9-14 20-13-1 10-8 16-19 18Z" fill="#78b94e"/>
    <path d="M43 15v13" stroke="#386328" stroke-width="3" stroke-linecap="round"/>
    <path d="M17 75c-9 4-12 13-8 20 3 6 10 8 17 4" fill="#dbe8a6" stroke="#536642" stroke-width="3"/>
    <path d="M71 75c9 4 12 13 8 20-3 6-10 8-17 4" fill="#dbe8a6" stroke="#536642" stroke-width="3"/>
    <rect x="20" y="44" width="48" height="62" rx="20" fill="#dfe9a8" stroke="#536642" stroke-width="3"/>
    <circle cx="44" cy="47" r="32" fill="#fbf6e9" stroke="#536642" stroke-width="3"/>
    <circle cx="32" cy="48" r="4" fill="#1d251d"/>
    <circle cx="56" cy="48" r="4" fill="#1d251d"/>
    <circle cx="25" cy="60" r="6" fill="#efb394" opacity=".75"/>
    <circle cx="63" cy="60" r="6" fill="#efb394" opacity=".75"/>
    <path d="M39 59c2 3 8 3 10 0" fill="none" stroke="#1d251d" stroke-width="2" stroke-linecap="round"/>
    <path d="M31 85h28l-6 14H37Z" fill="#eef3c9" stroke="#536642" stroke-width="2"/>
    <path d="M37 83 30 72M51 83l8-11" stroke="#536642" stroke-width="3" stroke-linecap="round"/>
    <path d="M32 104v5M56 104v5" stroke="#536642" stroke-width="3" stroke-linecap="round"/>
  </g>
</svg>
