<svg xmlns="http://www.w3.org/2000/svg" viewBox="0 0 70 70" role="img" aria-label="10 国探索者徽章">
  <path d="M35 4 44 9l10-1 5 9 8 6-2 10 2 10-8 6-5 9-10-1-9 5-9-5-10 1-5-9-8-6 2-10-2-10 8-6 5-9 10 1Z" fill="#8ebd65"/>
  <path d="M35 10 43 15l9-1 3 8 7 5-2 9 2 8-7 5-3 8-9-1-8 4-8-4-9 1-3-8-7-5 2-8-2-9 7-5 3-8 9 1Z" fill="#6fa24f"/>
  <text x="35" y="43" text-anchor="middle" font-family="-apple-system, BlinkMacSystemFont, Arial, sans-serif" font-size="26" font-weight="800" fill="#f8fbf2">10</text>
</svg>
