<svg xmlns="http://www.w3.org/2000/svg" viewBox="0 0 120 92" role="img" aria-label="北欧极光封面图">
  <defs>
    <linearGradient id="sky" x1="0" x2="120" y1="0" y2="92" gradientUnits="userSpaceOnUse">
      <stop stop-color="#071a38"/>
      <stop offset=".55" stop-color="#0c3856"/>
      <stop offset="1" stop-color="#071120"/>
    </linearGradient>
    <filter id="blur"><feGaussianBlur stdDeviation="2.4"/></filter>
  </defs>
  <rect width="120" height="92" fill="url(#sky)"/>
  <path d="M3 35c19-25 36-20 54-10 21 13 42 10 60-8v20c-18 17-39 18-60 6C37 32 19 32 3 57Z" fill="#69df91" opacity=".62" filter="url(#blur)"/>
  <path d="M0 54c20-18 39-20 58-6 17 12 38 13 62-4v14c-26 18-49 17-68 5C34 51 17 54 0 72Z" fill="#b9efa0" opacity=".38" filter="url(#blur)"/>
  <path d="M0 66c16-5 29-4 45 2 21 8 48 10 75-8v32H0Z" fill="#052319"/>
  <path d="M0 77c21-5 35-3 50 3 20 7 44 7 70-9v21H0Z" fill="#08131b"/>
  <path d="M9 76c13-10 26-15 40-16 10 6 20 9 31 9-21 6-42 10-71 7Z" fill="#143629" opacity=".75"/>
  <circle cx="91" cy="15" r="1.1" fill="#e4fff0"/>
  <circle cx="101" cy="27" r=".9" fill="#e4fff0"/>
  <circle cx="23" cy="20" r=".8" fill="#e4fff0"/>
  <circle cx="43" cy="14" r=".7" fill="#e4fff0"/>
</svg>
