<svg xmlns="http://www.w3.org/2000/svg" viewBox="0 0 86 86" role="img" aria-label="日本关西之旅封面图">
  <defs>
    <linearGradient id="sky" x1="0" x2="0" y1="0" y2="86" gradientUnits="userSpaceOnUse">
      <stop stop-color="#b8d5eb"/>
      <stop offset=".58" stop-color="#eff3e7"/>
      <stop offset="1" stop-color="#cfd8c5"/>
    </linearGradient>
  </defs>
  <rect width="86" height="86" fill="url(#sky)"/>
  <circle cx="23" cy="17" r="12" fill="#f4d9c9" opacity=".65"/>
  <path d="M9 60 39 19l35 41Z" fill="#243651"/>
  <path d="M39 19 50 60H9Z" fill="#37516d"/>
  <path d="m33 28 6-9 8 15c-5-3-9-3-14-6Z" fill="#f7f4ed"/>
  <path d="M0 66c15-5 28-5 42-1 18 5 30 2 44-6v27H0Z" fill="#8b9e78"/>
  <path d="M0 74c18-5 33-5 50 0 11 3 23 2 36-3v15H0Z" fill="#485b3c"/>
  <path d="M10 70c15-2 29-1 43 3" fill="none" stroke="#dcd7c2" stroke-width="2" opacity=".55"/>
  <path d="M54 65c11 2 21 1 32-5" fill="none" stroke="#dcd7c2" stroke-width="2" opacity=".45"/>
</svg>
