<svg xmlns="http://www.w3.org/2000/svg" viewBox="0 0 210 140" role="img" aria-label="浅色世界地图图片层">
  <defs>
    <linearGradient id="water" x1="22" x2="188" y1="12" y2="132" gradientUnits="userSpaceOnUse">
      <stop stop-color="#f7fbf2"/>
      <stop offset=".58" stop-color="#c8ded3"/>
      <stop offset="1" stop-color="#a7c4b4"/>
    </linearGradient>
    <filter id="soft" x="-20%" y="-20%" width="140%" height="140%">
      <feGaussianBlur stdDeviation="1.2"/>
    </filter>
  </defs>
  <rect width="210" height="140" fill="none"/>
  <path d="M21 106c16-12 32-14 51-11 16 3 22-14 38-15 17-1 25 16 43 10 15-5 24-25 41-20 8 3 12 11 12 20v50H21Z" fill="url(#water)" opacity=".8" filter="url(#soft)"/>
  <path d="M33 91c14-6 26-21 40-16 9 3 15 19 24 16 12-4 12-27 27-29 14-2 22 17 36 19 11 1 20-8 32-4 6 2 10 7 12 13v45H33Z" fill="#94b595" opacity=".5"/>
  <path d="M77 53c10 0 13-12 23-12 9 0 12 12 21 12 12 1 16-14 30-11 11 3 13 13 22 19 7 5 20 1 23 10 2 6-5 12-12 13-10 2-17-7-26-4-10 3-10 15-21 16-10 1-17-11-27-9-9 2-12 13-22 12-9-1-12-11-20-14-8-4-19 1-24-7-4-8 1-19 9-23 8-5 14-2 24-2Z" fill="#86a99e" opacity=".7"/>
  <path d="M107 64c9-4 24-3 32 1 11 6 12 18 3 25-8 7-23 9-34 5-10-4-15-12-14-20 1-5 5-8 13-11Z" fill="#d6e2d5" opacity=".82"/>
  <path d="M137 23c8 0 14 3 18 10 5 9 16 11 23 18 6 7 5 16-3 22-8 5-20 5-26-2-7-8-2-18-8-25-5-6-16-6-18-14-1-6 5-9 14-9Z" fill="#ebf0e7" opacity=".86"/>
  <path d="M66 38c9-3 21 2 25 9 5 9-1 21-12 21-9 0-13-9-21-12-6-3-15 0-18-7-3-8 12-8 26-11Z" fill="#eef4ec" opacity=".82"/>
  <path d="M157 87c18 5 24 17 16 29-10 15-39 13-47-1-6-11 4-24 16-28 5-2 10-1 15 0Z" fill="#789f79" opacity=".43"/>
</svg>
